<svg width="24" height="24" viewBox="0 0 24 24" fill="none" xmlns="http://www.w3.org/2000/svg">
<path d="M19.3496 19.7812V13.0957M11.709 19.7812V10.2305M4.06836 19.7812L4.06836 15.9609M13.0525 5.48135L17.9887 7.33245M10.5617 5.83799L5.21467 9.84827M20.3626 6.82976C20.9221 7.38923 20.9221 8.29631 20.3626 8.85579C19.8031 9.41526 18.8961 9.41526 18.3366 8.85579C17.7771 8.29631 17.7771 7.38923 18.3366 6.82976C18.8961 6.27029 19.8031 6.27029 20.3626 6.82976ZM5.08137 9.69499C5.64084 10.2545 5.64084 11.1615 5.08137 11.721C4.5219 12.2805 3.61482 12.2805 3.05535 11.721C2.49587 11.1615 2.49587 10.2545 3.05535 9.69499C3.61482 9.13552 4.5219 9.13552 5.08137 9.69499ZM12.722 3.96453C13.2815 4.524 13.2815 5.43108 12.722 5.99055C12.1625 6.55002 11.2554 6.55002 10.696 5.99055C10.1365 5.43108 10.1365 4.524 10.696 3.96453C11.2554 3.40505 12.1625 3.40505 12.722 3.96453Z" stroke="white" stroke-width="1.91016" stroke-linecap="round" stroke-linejoin="round"/>
</svg>
