<svg width="23" height="24" viewBox="0 0 23 24" fill="none" xmlns="http://www.w3.org/2000/svg">
<path d="M21.0352 8.82672V4.49066C21.0352 3.144 20.4239 2.59961 18.9053 2.59961H15.0468C13.5282 2.59961 12.917 3.144 12.917 4.49066V8.81717C12.917 10.1734 13.5282 10.7082 15.0468 10.7082H18.9053C20.4239 10.7178 21.0352 10.1734 21.0352 8.82672Z" fill="white"/>
<path d="M21.0352 19.5713V15.7128C21.0352 14.1943 20.4239 13.583 18.9053 13.583H15.0468C13.5282 13.583 12.917 14.1943 12.917 15.7128V19.5713C12.917 21.0899 13.5282 21.7012 15.0468 21.7012H18.9053C20.4239 21.7012 21.0352 21.0899 21.0352 19.5713Z" fill="white"/>
<path d="M10.0518 8.82672V4.49066C10.0518 3.144 9.44051 2.59961 7.92193 2.59961H4.06342C2.54484 2.59961 1.93359 3.144 1.93359 4.49066V8.81717C1.93359 10.1734 2.54484 10.7082 4.06342 10.7082H7.92193C9.44051 10.7178 10.0518 10.1734 10.0518 8.82672Z" fill="white"/>
<path d="M10.0518 19.5713V15.7128C10.0518 14.1943 9.44051 13.583 7.92193 13.583H4.06342C2.54484 13.583 1.93359 14.1943 1.93359 15.7128V19.5713C1.93359 21.0899 2.54484 21.7012 4.06342 21.7012H7.92193C9.44051 21.7012 10.0518 21.0899 10.0518 19.5713Z" fill="white"/>
</svg>
