<svg width="24" height="24" viewBox="0 0 24 24" fill="none" xmlns="http://www.w3.org/2000/svg">
<path d="M9.01955 9.27148C9.24409 8.63317 9.6873 8.09493 10.2707 7.75208C10.854 7.40923 11.5399 7.28391 12.2068 7.3983C12.8737 7.51269 13.4786 7.85942 13.9144 8.37708C14.3502 8.89474 14.5887 9.54991 14.5877 10.2266C14.5877 12.1367 11.7224 13.0918 11.7224 13.0918M11.7988 16.9121H11.8084M21.3496 12.1367C21.3496 17.4115 17.0736 21.6875 11.7988 21.6875C6.52408 21.6875 2.24805 17.4115 2.24805 12.1367C2.24805 6.86197 6.52408 2.58594 11.7988 2.58594C17.0736 2.58594 21.3496 6.86197 21.3496 12.1367Z" stroke="white" stroke-width="1.91016" stroke-linecap="round" stroke-linejoin="round"/>
</svg>
