<svg width="24" height="24" viewBox="0 0 24 24" fill="none" xmlns="http://www.w3.org/2000/svg">
<path d="M11.709 15.0098C13.2914 15.0098 14.5742 13.727 14.5742 12.1445C14.5742 10.5621 13.2914 9.2793 11.709 9.2793C10.1266 9.2793 8.84375 10.5621 8.84375 12.1445C8.84375 13.727 10.1266 15.0098 11.709 15.0098Z" stroke="white" stroke-width="1.91016" stroke-linecap="round" stroke-linejoin="round"/>
<path d="M18.1341 14.7493C18.0185 15.0112 17.984 15.3017 18.0351 15.5833C18.0861 15.865 18.2204 16.1249 18.4206 16.3295L18.4727 16.3816C18.6341 16.5429 18.7622 16.7344 18.8496 16.9452C18.937 17.156 18.982 17.382 18.982 17.6102C18.982 17.8384 18.937 18.0644 18.8496 18.2752C18.7622 18.486 18.6341 18.6775 18.4727 18.8388C18.3114 19.0002 18.1199 19.1283 17.9091 19.2157C17.6983 19.3031 17.4723 19.3481 17.2441 19.3481C17.0159 19.3481 16.7899 19.3031 16.5791 19.2157C16.3683 19.1283 16.1768 19.0002 16.0155 18.8388L15.9634 18.7867C15.7588 18.5865 15.4989 18.4522 15.2172 18.4012C14.9356 18.3501 14.6451 18.3846 14.3832 18.5001C14.1264 18.6102 13.9074 18.793 13.7531 19.0259C13.5988 19.2588 13.5161 19.5318 13.5149 19.8112V19.9588C13.5149 20.4194 13.332 20.861 13.0063 21.1867C12.6807 21.5124 12.239 21.6953 11.7784 21.6953C11.3179 21.6953 10.8762 21.5124 10.5505 21.1867C10.2249 20.861 10.0419 20.4194 10.0419 19.9588V19.8807C10.0352 19.5933 9.94219 19.3146 9.77496 19.0807C9.60773 18.8469 9.37402 18.6688 9.10423 18.5696C8.84235 18.454 8.55185 18.4195 8.27019 18.4706C7.98853 18.5217 7.72863 18.656 7.524 18.8561L7.47191 18.9082C7.31064 19.0697 7.11912 19.1978 6.90831 19.2851C6.6975 19.3725 6.47154 19.4175 6.24333 19.4175C6.01513 19.4175 5.78916 19.3725 5.57835 19.2851C5.36755 19.1978 5.17603 19.0697 5.01475 18.9082C4.8533 18.7469 4.72522 18.5554 4.63783 18.3446C4.55044 18.1338 4.50546 17.9078 4.50546 17.6796C4.50546 17.4514 4.55044 17.2255 4.63783 17.0147C4.72522 16.8039 4.8533 16.6123 5.01475 16.4511L5.06685 16.399C5.26701 16.1943 5.40129 15.9344 5.45236 15.6528C5.50343 15.3711 5.46895 15.0806 5.35337 14.8187C5.24331 14.5619 5.06056 14.3429 4.82762 14.1887C4.59467 14.0344 4.3217 13.9516 4.04231 13.9505H3.89471C3.43416 13.9505 2.99247 13.7675 2.66681 13.4419C2.34116 13.1162 2.1582 12.6745 2.1582 12.214C2.1582 11.7534 2.34116 11.3118 2.66681 10.9861C2.99247 10.6604 3.43416 10.4775 3.89471 10.4775H3.97285C4.26024 10.4708 4.53896 10.3777 4.77277 10.2105C5.00659 10.0433 5.18469 9.80957 5.28391 9.53977C5.39949 9.27789 5.43397 8.9874 5.3829 8.70574C5.33183 8.42408 5.19755 8.16418 4.99739 7.95955L4.94529 7.90746C4.78384 7.74618 4.65576 7.55467 4.56837 7.34386C4.48098 7.13305 4.436 6.90708 4.436 6.67888C4.436 6.45068 4.48098 6.22471 4.56837 6.0139C4.65576 5.80309 4.78384 5.61158 4.94529 5.4503C5.10657 5.28885 5.29809 5.16076 5.50889 5.07338C5.7197 4.98599 5.94567 4.94101 6.17387 4.94101C6.40208 4.94101 6.62804 4.98599 6.83885 5.07338C7.04966 5.16076 7.24118 5.28885 7.40245 5.4503L7.45454 5.5024C7.65917 5.70256 7.91907 5.83684 8.20073 5.8879C8.48239 5.93897 8.77289 5.9045 9.03477 5.78892H9.10423C9.36103 5.67886 9.58004 5.49611 9.73431 5.26316C9.88858 5.03022 9.97136 4.75725 9.97248 4.47786V4.33026C9.97248 3.86971 10.1554 3.42802 10.4811 3.10236C10.8067 2.7767 11.2484 2.59375 11.709 2.59375C12.1695 2.59375 12.6112 2.7767 12.9369 3.10236C13.2625 3.42802 13.4455 3.86971 13.4455 4.33026V4.4084C13.4466 4.68779 13.5294 4.96076 13.6837 5.1937C13.8379 5.42665 14.0569 5.6094 14.3137 5.71946C14.5756 5.83504 14.8661 5.86951 15.1478 5.81844C15.4294 5.76737 15.6893 5.6331 15.894 5.43294L15.9461 5.38084C16.1073 5.21939 16.2988 5.0913 16.5097 5.00392C16.7205 4.91653 16.9464 4.87155 17.1746 4.87155C17.4028 4.87155 17.6288 4.91653 17.8396 5.00392C18.0504 5.0913 18.2419 5.21939 18.4032 5.38084C18.5647 5.54212 18.6927 5.73363 18.7801 5.94444C18.8675 6.15525 18.9125 6.38122 18.9125 6.60942C18.9125 6.83762 18.8675 7.06359 18.7801 7.2744C18.6927 7.48521 18.5647 7.67672 18.4032 7.838L18.3511 7.89009C18.151 8.09472 18.0167 8.35462 17.9656 8.63628C17.9145 8.91793 17.949 9.20843 18.0646 9.47031V9.53977C18.1747 9.79657 18.3574 10.0156 18.5904 10.1699C18.8233 10.3241 19.0963 10.4069 19.3757 10.408H19.5233C19.9838 10.408 20.4255 10.591 20.7512 10.9166C21.0768 11.2423 21.2598 11.684 21.2598 12.1445C21.2598 12.6051 21.0768 13.0468 20.7512 13.3724C20.4255 13.6981 19.9838 13.881 19.5233 13.881H19.4451C19.1657 13.8821 18.8928 13.9649 18.6598 14.1192C18.4269 14.2735 18.2441 14.4925 18.1341 14.7493Z" stroke="white" stroke-width="1.91016" stroke-linecap="round" stroke-linejoin="round"/>
</svg>
