<svg width="24" height="24" viewBox="0 0 24 24" fill="none" xmlns="http://www.w3.org/2000/svg">
<path d="M8.97852 11.3096L10.8887 13.2197L15.1865 8.92187M19.4844 11.7871C19.4844 16.4751 14.3709 19.8846 12.5104 20.9701C12.2989 21.0934 12.1932 21.1551 12.044 21.1871C11.9282 21.2119 11.7593 21.2119 11.6435 21.1871C11.4943 21.1551 11.3886 21.0934 11.1771 20.9701C9.31658 19.8846 4.20312 16.4751 4.20312 11.7871V7.21954C4.20312 6.45594 4.20312 6.07415 4.32801 5.74595C4.43834 5.45603 4.61761 5.19733 4.85034 4.99223C5.11379 4.76006 5.47128 4.626 6.18625 4.35788L11.3072 2.43753C11.5057 2.36308 11.605 2.32585 11.7072 2.31109C11.7977 2.298 11.8898 2.298 11.9803 2.31109C12.0825 2.32585 12.1818 2.36308 12.3803 2.43753L17.5012 4.35788C18.2162 4.626 18.5737 4.76006 18.8372 4.99223C19.0699 5.19733 19.2492 5.45603 19.3595 5.74595C19.4844 6.07415 19.4844 6.45594 19.4844 7.21954V11.7871Z" stroke="white" stroke-width="1.91016" stroke-linecap="round" stroke-linejoin="round"/>
</svg>
