<svg width="24" height="24" viewBox="0 0 24 24" fill="none" xmlns="http://www.w3.org/2000/svg">
<path d="M15.5293 7.84961V4.50746C15.5293 3.71309 15.5293 3.3159 15.362 3.07181C15.2158 2.85855 14.9893 2.71367 14.7344 2.6703C14.4427 2.62065 14.0821 2.7871 13.3608 3.11999L4.88878 7.03015C4.24553 7.32703 3.92391 7.47547 3.68834 7.7057C3.48009 7.90922 3.32112 8.15767 3.2236 8.43205C3.11328 8.74241 3.11328 9.09664 3.11328 9.8051V14.5352M16.0068 14.0576H16.0164M3.11328 10.9059L3.11328 17.2094C3.11328 18.2792 3.11328 18.8141 3.32148 19.2227C3.50461 19.5821 3.79683 19.8743 4.15624 20.0574C4.56485 20.2656 5.09974 20.2656 6.16953 20.2656H17.2484C18.3182 20.2656 18.8531 20.2656 19.2617 20.0574C19.6211 19.8743 19.9134 19.5821 20.0965 19.2227C20.3047 18.8141 20.3047 18.2792 20.3047 17.2094V10.9059C20.3047 9.83607 20.3047 9.30118 20.0965 8.89257C19.9134 8.53316 19.6211 8.24094 19.2617 8.05781C18.8531 7.84961 18.3182 7.84961 17.2484 7.84961L6.16953 7.84961C5.09974 7.84961 4.56485 7.84961 4.15624 8.0578C3.79683 8.24094 3.50461 8.53315 3.32148 8.89257C3.11328 9.30118 3.11328 9.83607 3.11328 10.9059ZM16.4844 14.0576C16.4844 14.3214 16.2706 14.5352 16.0068 14.5352C15.7431 14.5352 15.5293 14.3214 15.5293 14.0576C15.5293 13.7939 15.7431 13.5801 16.0068 13.5801C16.2706 13.5801 16.4844 13.7939 16.4844 14.0576Z" stroke="white" stroke-width="1.91016" stroke-linecap="round" stroke-linejoin="round"/>
</svg>
